<svg class="svg-icon" style="width: 1em; height: 1em;vertical-align: middle;fill: currentColor;overflow: hidden;" viewBox="0 0 1024 1024" version="1.1" xmlns="http://www.w3.org/2000/svg"><path d="M387.108 262.216h249.784c30.528 0 55.508-24.979 55.508-55.508v-41.631c0-30.528-24.979-55.508-55.508-55.508h-20.45V69.94a2 2 0 0 0-2-2H428.548a2 2 0 0 0-2 2v39.631h-39.44c-30.529 0-55.508 24.979-55.508 55.508v41.631c0 30.527 24.98 55.506 55.508 55.506z m131.83-41.631c-19.162 0-34.692-15.534-34.692-34.692 0-19.162 15.53-34.692 34.692-34.692s34.692 15.53 34.692 34.692c0.001 19.159-15.53 34.692-34.692 34.692z"  /><path d="M789.538 165.078h-76.323v76.323c0 30.528-24.979 55.508-55.508 55.508H366.293c-30.528 0-55.508-24.979-55.508-55.508v-76.323h-76.323c-30.528 0-55.508 24.979-55.508 55.508v679.968c0 30.528 24.979 55.508 55.508 55.508h555.076c30.529 0 55.508-24.979 55.508-55.508V220.585c-0.001-30.528-24.98-55.507-55.508-55.507zM692.4 796.476H317.724c-22.997 0-41.631-18.633-41.631-41.631 0-22.997 18.634-41.631 41.631-41.631H692.4c22.997 0 41.631 18.633 41.631 41.631-0.001 22.998-18.634 41.631-41.631 41.631z m0-144.298H317.724c-22.997 0-41.631-18.634-41.631-41.631s18.634-41.631 41.631-41.631H692.4c22.997 0 41.631 18.634 41.631 41.631s-18.634 41.631-41.631 41.631z m0-144.298H317.724c-22.997 0-41.631-18.634-41.631-41.631s18.634-41.631 41.631-41.631H692.4c22.997 0 41.631 18.634 41.631 41.631S715.397 507.88 692.4 507.88z"  /></svg>